<?xml version="1.0" encoding="utf-8"?>
<!-- Svg Vector Icons : http://www.onlinewebfonts.com/icon -->
<!DOCTYPE svg PUBLIC "-//W3C//DTD SVG 1.1//EN" "http://www.w3.org/Graphics/SVG/1.1/DTD/svg11.dtd">
<svg version="1.1" xmlns="http://www.w3.org/2000/svg" x="0px" y="0px"
     viewBox="0 0 1000 1000" enable-background="new 0 0 1000 1000" xml:space="preserve">
<metadata> Svg Vector Icons : http://www.onlinewebfonts.com/icon </metadata>
    <g><g transform="translate(0.000000,511.000000) scale(0.100000,-0.100000)"><path d="M2387.7,3636.4c-709-156.2-1177.5-392.5-1591.1-801.9c-502.2-498-696.4-1012.9-696.4-1835.9C96,412,163.5,66,450.5-816.1c194.1-603.5,211-692.1,240.6-1245c38-679.5,122.4-945.4,375.6-1164.8c215.3-189.9,388.3-249,725.9-249c540.2,0,1101.5,240.6,2089.1,898.9c586.6,388.3,894.7,633.1,1540.4,1211.3C6236.7-634.6,6684-394.1,8081,70.2c1021.3,337.6,1245,460,1532,839.9c202.6,261.7,287,510.7,287,831.4c0,641.5-493.8,1122.6-1418,1375.8c-303.9,84.4-447.4,92.9-1392.7,97.1l-1055.1,4.2l-780.8,177.2c-430.5,97.1-953.8,202.6-1156.4,240.6C3636.9,3716.6,2754.8,3712.4,2387.7,3636.4z M3923.9,3003.4c211-33.8,742.8-143.5,1181.7-240.6l801.9-181.5h1012.9c1139.5-4.2,1456-50.6,1903.4-291.2c438.9-232.1,548.7-552.9,320.8-915.8c-181.5-282.8-392.5-400.9-1257.7-692.2c-438.9-143.5-890.5-303.9-1000.2-354.5c-114-50.7-211-88.7-219.5-88.7s4.2,63.3,25.3,135.1c101.3,362.9,4.2,1190.2-168.8,1426.5c-160.4,219.5-455.8,206.8-561.4-21.1c-38-84.4-29.5-164.6,46.4-409.4c168.8-574,88.7-1021.3-261.6-1502.4c-151.9-206.8-941.2-941.2-1464.5-1359c-443.1-358.7-1253.5-882-1713.5-1105.8c-725.9-354.5-1084.6-320.7-1194.4,109.8c-25.3,105.5-46.4,346.1-46.4,540.2c0,434.7-67.5,759.7-312.3,1502.5C910.5-128.2,805,255.9,783.9,407.8c-59.1,346.1-59.1,894.7,0,1139.5C1041.4,2657.3,2341.2,3260.8,3923.9,3003.4z"/></g></g>
</svg>